<svg viewBox="0 0 400 100" xmlns="http://www.w3.org/2000/svg">
  <!-- N -->
  <path
    d="M20 80 L20 20 L35 20 L65 60 L65 20 L80 20 L80 80 L65 80 L35 40 L35 80 Z"
    fill="#F84565"
  />
  <!-- t -->
  <path
    d="M95 35 L95 25 L115 25 L115 35 L105 35 L105 70 Q105 75 110 75 L115 75 L115 85 L108 85 Q95 85 95 72 L95 35 Z"
    fill="#FFFFFF"
  />
  <!-- d -->
  <path
    d="M135 20 L135 80 L120 80 L120 40 Q120 35 125 35 L145 35 Q155 35 155 45 L155 80 L140 80 L140 48 L130 48 L130 70 Q130 75 135 75 L135 80 L140 80 L155 80 L155 20 Z"
    fill="#F84565"
  />
  <!-- F -->
  <path
    d="M175 80 L175 20 L225 20 L225 35 L190 35 L190 42 L220 42 L220 55 L190 55 L190 80 Z"
    fill="#FFFFFF"
  />
  <!-- i -->
  <circle cx="240" cy="25" r="6" fill="#F84565" />
  <rect x="234" y="40" width="12" height="40" fill="#F84565" />
  <!-- l -->
  <rect x="260" y="20" width="12" height="60" fill="#FFFFFF" />
  <!-- m -->
  <path
    d="M285 80 L285 40 Q285 35 290 35 L305 35 Q310 35 310 40 L310 80 L295 80 L295 48 L300 48 L315 48 Q320 48 320 53 L320 80 L335 80 L335 40 Q335 35 340 35 L355 35 Q360 35 360 40 L360 80 L345 80 L345 48 L350 48 L320 48 L320 35 L285 35 L285 80 Z"
    fill="#F84565"
  />
</svg>